<?xml version="1.0" encoding="UTF-8" standalone="no"?>
<svg
   width="1763"
   height="1763"
   xml:space="preserve"
   overflow="hidden"
   version="1.1"
   id="svg517"
   sodipodi:docname="new logo.svg"
   inkscape:version="1.2.2 (b0a8486541, 2022-12-01)"
   xmlns:inkscape="http://www.inkscape.org/namespaces/inkscape"
   xmlns:sodipodi="http://sodipodi.sourceforge.net/DTD/sodipodi-0.dtd"
   xmlns="http://www.w3.org/2000/svg"
   xmlns:svg="http://www.w3.org/2000/svg"><sodipodi:namedview
     id="namedview519"
     pagecolor="#505050"
     bordercolor="#eeeeee"
     borderopacity="1"
     inkscape:showpageshadow="0"
     inkscape:pageopacity="0"
     inkscape:pagecheckerboard="0"
     inkscape:deskcolor="#505050"
     showgrid="false"
     inkscape:zoom="0.2507426"
     inkscape:cx="1254.2743"
     inkscape:cy="759.74327"
     inkscape:window-width="1920"
     inkscape:window-height="983"
     inkscape:window-x="0"
     inkscape:window-y="0"
     inkscape:window-maximized="1"
     inkscape:current-layer="g515" /><defs
     id="defs493"><clipPath
       id="clip0"><rect
         x="679"
         y="547"
         width="1763"
         height="1763"
         id="rect484" /></clipPath><clipPath
       id="clip1"><rect
         x="1180"
         y="1266"
         width="762"
         height="225"
         id="rect487" /></clipPath><clipPath
       id="clip2"><rect
         x="1180"
         y="1266"
         width="762"
         height="225"
         id="rect490" /></clipPath></defs><g
     clip-path="url(#clip0)"
     transform="translate(-679 -547)"
     id="g515"><rect
       x="679"
       y="547"
       width="1763"
       height="1763"
       id="rect495" /><path
       d="M1165 820C1165 704.02 1342.3 610 1561 610 1779.7 610 1957 704.02 1957 820 1957 935.98 1779.7 1030 1561 1030 1342.3 1030 1165 935.98 1165 820Z"
       fill-rule="evenodd"
       id="path497" /><g
       id="g505"><g
         id="g503"><g
           id="g501"><path
             d="M1561 1429C1541.66 1429 1525.45 1422.46 1512.37 1409.38 1499.29 1396.3 1492.75 1380.09 1492.75 1360.75L1492.75 814.75C1492.75 795.413 1499.29 779.203 1512.37 766.122 1525.45 753.041 1541.66 746.5 1561 746.5 1580.34 746.5 1596.55 753.041 1609.63 766.122 1622.71 779.203 1629.25 795.413 1629.25 814.75L1629.25 1360.75C1629.25 1380.09 1622.71 1396.3 1609.63 1409.38 1596.55 1422.46 1580.34 1429 1561 1429ZM1561 2043.25C1475.69 2043.25 1395.78 2027.04 1321.27 1994.62 1246.77 1962.2 1181.93 1918.41 1126.76 1863.24 1071.59 1808.07 1027.8 1743.23 995.378 1668.73 962.96 1594.22 946.75 1514.31 946.75 1429 946.75 1359.61 958.125 1292.22 980.875 1226.81 1003.63 1161.4 1036.61 1101.4 1079.84 1046.8 1092.35 1030.88 1108.28 1023.2 1127.61 1023.77 1146.95 1024.33 1164.01 1032.01 1178.8 1046.8 1191.31 1059.31 1197 1074.67 1195.86 1092.87 1194.73 1111.07 1188.47 1128.13 1177.09 1144.06 1146.38 1185.01 1123.06 1229.94 1107.14 1278.85 1091.21 1327.76 1083.25 1377.81 1083.25 1429 1083.25 1562.09 1129.6 1674.98 1222.31 1767.69 1315.02 1860.4 1427.91 1906.75 1561 1906.75 1694.09 1906.75 1806.98 1860.4 1899.69 1767.69 1992.4 1674.98 2038.75 1562.09 2038.75 1429 2038.75 1376.68 2031.07 1325.77 2015.72 1276.29 2000.36 1226.81 1976.19 1181.59 1943.2 1140.64 1931.83 1125.86 1925.57 1109.65 1924.43 1092.02 1923.29 1074.38 1928.98 1059.31 1941.49 1046.8 1955.14 1033.15 1971.64 1026.04 1990.98 1025.47 2010.31 1024.9 2026.24 1032.01 2038.75 1046.8 2083.11 1101.4 2116.95 1161.12 2140.27 1225.96 2163.59 1290.79 2175.25 1358.48 2175.25 1429 2175.25 1514.31 2159.04 1594.22 2126.62 1668.73 2094.2 1743.23 2050.41 1808.07 1995.24 1863.24 1940.07 1918.41 1875.23 1962.2 1800.73 1994.62 1726.22 2027.04 1646.31 2043.25 1561 2043.25Z"
             fill="#E3E3E3"
             id="path499" /></g></g></g><g
       clip-path="url(#clip1)"
       id="g513"><g
         clip-path="url(#clip2)"
         id="g511"><g
           id="g509"><path
             d="M818.538-818.538C799.212-818.538 783.011-825.075 769.938-838.149 756.864-851.223 750.327-867.423 750.327-886.75L750.327-1432.44C750.327-1451.77 756.864-1467.97 769.938-1481.04 783.011-1494.12 799.212-1500.65 818.538-1500.65 837.865-1500.65 854.065-1494.12 867.139-1481.04 880.213-1467.97 886.75-1451.77 886.75-1432.44L886.75-886.75C886.75-867.423 880.213-851.223 867.139-838.149 854.065-825.075 837.865-818.538 818.538-818.538ZM818.538-204.635C733.274-204.635 653.41-220.835 578.945-253.235 504.481-285.636 439.68-329.405 384.542-384.542 329.405-439.68 285.636-504.481 253.235-578.945 220.835-653.41 204.635-733.274 204.635-818.538 204.635-887.887 216.003-955.246 238.74-1020.61 261.477-1085.98 294.446-1145.95 337.647-1200.52 350.152-1216.44 366.069-1224.11 385.395-1223.54 404.722-1222.98 421.775-1215.3 436.554-1200.52 449.059-1188.02 454.743-1172.67 453.607-1154.48 452.47-1136.29 446.217-1119.24 434.848-1103.32 404.153-1062.39 380.848-1017.49 364.932-968.604 349.016-919.719 341.058-869.697 341.058-818.538 341.058-685.526 387.385-572.693 480.039-480.039 572.693-387.385 685.526-341.058 818.538-341.058 951.551-341.058 1064.38-387.385 1157.04-480.039 1249.69-572.693 1296.02-685.526 1296.02-818.538 1296.02-870.834 1288.35-921.708 1273-971.162 1257.65-1020.61 1233.49-1065.81 1200.52-1106.73 1189.15-1121.51 1182.9-1137.71 1181.76-1155.33 1180.63-1172.95 1186.31-1188.02 1198.82-1200.52 1212.46-1214.17 1228.94-1221.27 1248.27-1221.84 1267.6-1222.41 1283.51-1215.3 1296.02-1200.52 1340.36-1145.95 1374.18-1086.27 1397.48-1021.47 1420.79-956.667 1432.44-889.023 1432.44-818.538 1432.44-733.274 1416.24-653.41 1383.84-578.945 1351.44-504.481 1307.67-439.68 1252.53-384.542 1197.4-329.405 1132.6-285.636 1058.13-253.235 983.667-220.835 903.803-204.635 818.538-204.635Z"
             fill="#E3E3E3"
             transform="matrix(6.12323e-17 1 -1.00085 6.12842e-17 414.478 556.082)"
             id="path507" /></g></g></g></g><path
     style="fill:#000000;fill-opacity:1;stroke-width:4.688;stroke-linejoin:round"
     d="M 813.75,743.1925 V 911.48769 H 519.65693 V 719 H 813.75 Z"
     id="path1518" /></svg>

