<?xml version="1.0" encoding="UTF-8" standalone="no"?>
<!-- Created with Inkscape (http://www.inkscape.org/) -->

<svg
   viewBox="0 0 1131.8119 148.5"
   version="1.1"
   id="svg5894"
   sodipodi:docname="logo.svg"
   inkscape:version="1.2.2 (b0a8486541, 2022-12-01)"
   xmlns:inkscape="http://www.inkscape.org/namespaces/inkscape"
   xmlns:sodipodi="http://sodipodi.sourceforge.net/DTD/sodipodi-0.dtd"
   xmlns="http://www.w3.org/2000/svg"
   xmlns:svg="http://www.w3.org/2000/svg">
  <sodipodi:namedview
     id="namedview1169"
     pagecolor="#505050"
     bordercolor="#eeeeee"
     borderopacity="1"
     inkscape:showpageshadow="0"
     inkscape:pageopacity="0"
     inkscape:pagecheckerboard="0"
     inkscape:deskcolor="#505050"
     showgrid="false"
     inkscape:zoom="0.61603486"
     inkscape:cx="731.28978"
     inkscape:cy="-47.8869"
     inkscape:window-width="1920"
     inkscape:window-height="983"
     inkscape:window-x="0"
     inkscape:window-y="0"
     inkscape:window-maximized="1"
     inkscape:current-layer="svg5894" />
  <defs
     id="defs5891">
    <rect
       x="147.23544"
       y="0"
       width="823.67566"
       height="99.054085"
       id="rect8493" />
  </defs>
  <g
     id="layer4"
     transform="translate(589.23749)">
    <path
       d="m -518.89538,78.1579 q -3.32174,0 -5.56873,-2.247053 -2.24706,-2.247 -2.24706,-5.568737 V 7.815789 q 0,-3.3217364 2.24706,-5.5687368 Q -522.21712,0 -518.89538,0 q 3.32169,0 5.56874,2.2470522 2.24705,2.2470004 2.24705,5.5687368 V 70.34211 q 0,3.321737 -2.24705,5.568737 -2.24705,2.247053 -5.56874,2.247053 z m 0,70.3421 q -14.65463,0 -27.45294,-5.56873 -12.79838,-5.5688 -22.27502,-15.04541 -9.47668,-9.47664 -15.04541,-22.27502 -5.56874,-12.798307 -5.56874,-27.45294 0,-11.919053 3.90789,-23.154265 3.9079,-11.23521 11.33291,-20.614159 2.14931,-2.735526 5.47105,-2.637843 3.32168,0.0979 5.86184,2.637843 2.14932,2.149368 1.95394,5.275632 -0.19525,3.126368 -2.14936,5.861895 -5.27563,7.034211 -8.01116,15.436159 -2.73553,8.402001 -2.73553,17.194738 0,22.86121 15.92469,38.78584 15.92463,15.92468 38.78584,15.92468 22.86117,0 38.78586,-15.92468 15.92467,-15.92463 15.92467,-38.78584 0,-8.988158 -2.63784,-17.487843 -2.63785,-8.499632 -8.30427,-15.533843 -1.95393,-2.540159 -2.14936,-5.56879 -0.19526,-3.02858 1.95394,-5.177948 2.34474,-2.344737 5.66648,-2.442422 3.32168,-0.0979 5.47105,2.442422 7.62037,9.378949 11.626,20.516475 4.00557,11.137475 4.00557,23.251949 0,14.654633 -5.56874,27.45294 -5.56879,12.79838 -15.04541,22.27502 -9.47663,9.47661 -22.275,15.04541 -12.79836,5.56873 -27.45295,5.56873 z"
       id="path5750"
       style="fill:#cccccc;fill-opacity:1;stroke-width:0.20678;stroke-dasharray:none" />
    <g
       aria-label="FFLINE_LABS"
       transform="matrix(1.485,0,0,1.485,-646.56506,48.61679)"
       id="text8491"
       style="font-size:74.6667px;line-height:0;font-family:Orbitron;-inkscape-font-specification:Orbitron;letter-spacing:5px;word-spacing:0px;white-space:pre;shape-inside:url(#rect8493);fill:#cccccc;stroke-width:0.0264567;stroke-linejoin:round">
      <path
         d="M 151.567,52.731126 V -1.0288996 h 49.05602 V 5.0191033 H 157.615 V 22.789778 h 34.57068 v 6.12267 H 157.615 v 23.818678 z"
         style="line-height:0.8"
         id="path340" />
      <path
         d="M 210.55099,52.731126 V -1.0288996 h 49.05602 V 5.0191033 H 216.59899 V 22.789778 h 34.57069 v 6.12267 h -34.57069 v 23.818678 z"
         style="line-height:0.8"
         id="path342" />
      <path
         d="M 269.46032,52.731126 V -1.1035663 h 6.048 V 46.683123 h 47.71202 v 6.048003 z"
         style="line-height:0.8"
         id="path344" />
      <path
         d="M 333.29763,52.731126 V -1.0288996 h 6.12267 V 52.731126 Z"
         style="line-height:0.8"
         id="path346" />
      <path
         d="M 353.52969,52.731126 V -1.0288996 h 8.28801 L 401.24172,45.861789 V -1.0288996 h 6.048 V 52.731126 h -8.288 L 359.5777,5.840437 v 46.890689 z"
         style="line-height:0.8"
         id="path348" />
      <path
         d="M 420.80177,52.731126 V -1.0288996 h 49.05602 V 5.0191033 H 426.84977 V 22.789778 h 34.57068 v 6.12267 h -34.57068 v 17.770675 h 43.00802 v 6.048003 z"
         style="line-height:0.8"
         id="path350" />
      <path
         d="m 482.69786,58.853796 v 0 -6.12267 h 54.35736 v 6.12267 z"
         style="line-height:0.8"
         id="path352" />
      <path
         d="M 549.74581,52.731126 V -1.1035663 h 6.048 V 46.683123 h 47.71202 v 6.048003 z"
         style="line-height:0.8"
         id="path354" />
      <path
         d="M 612.98579,52.731126 V 7.9311047 q 0,-2.4640012 1.19467,-4.4800021 1.19466,-2.0906677 3.21067,-3.28533493 2.09066,-1.19466727 4.55466,-1.19466727 h 35.84002 q 2.464,0 4.48,1.19466727 2.09067,1.19466723 3.28534,3.28533493 1.19467,2.0160009 1.19467,4.4800021 V 52.731126 h -6.04801 V 33.093783 h -41.66402 v 19.637343 h -6.048 z m 6.048,-25.685346 h 41.66402 V 7.9311047 q 0,-1.1946672 -0.896,-2.016001 -0.82133,-0.8960004 -2.016,-0.8960004 h -35.84002 q -1.19466,0 -2.09066,0.8960004 -0.82134,0.8213338 -0.82134,2.016001 V 27.04578 Z"
         style="line-height:0.8"
         id="path356" />
      <path
         d="M 680.48187,52.731126 V -1.0288996 h 42.48536 q 2.464,0 4.48,1.19466727 2.09067,1.19466723 3.28533,3.28533493 1.19467,2.0160009 1.19467,4.4800021 V 19.35511 q 0,1.045334 -0.29867,2.090668 -0.224,0.970667 -0.672,1.866667 1.64267,2.464002 2.46401,4.256002 0.82133,1.792001 0.82133,3.658669 v 12.544006 q 0,2.464001 -1.19467,4.554669 -1.19467,2.016001 -3.28533,3.210668 -2.016,1.194667 -4.48001,1.194667 h -44.80002 z m 8.96001,-6.048003 h 35.84001 q 1.19467,0 2.01601,-0.821334 0.896,-0.896 0.896,-2.090667 V 31.227116 q 0,-1.194667 -0.896,-2.016001 -0.82134,-0.896001 -2.01601,-0.896001 h -35.84001 q -1.19467,0 -2.09067,0.896001 -0.82133,0.821334 -0.82133,2.016001 v 12.544006 q 0,1.194667 0.82133,2.090667 0.896,0.821334 2.09067,0.821334 z m 0,-24.416011 h 33.52535 q 1.19466,0 2.016,-0.821334 0.82133,-0.896001 0.82133,-2.090668 V 7.9311047 q 0,-1.1946672 -0.82133,-2.016001 -0.82134,-0.8960004 -2.016,-0.8960004 h -33.52535 q -1.19467,0 -2.09067,0.8960004 -0.82133,0.8213338 -0.82133,2.016001 V 19.35511 q 0,1.194667 0.82133,2.090668 0.896,0.821334 2.09067,0.821334 z"
         style="line-height:0.8"
         id="path358" />
      <path
         d="m 755.96729,52.731126 q -2.46401,0 -4.55467,-1.194667 -2.016,-1.194667 -3.21067,-3.210668 -1.19467,-2.090668 -1.19467,-4.554669 v -2.090668 h 6.048 v 2.090668 q 0,1.194667 0.82134,2.090667 0.896,0.821334 2.09067,0.821334 h 35.84001 q 1.19467,0 2.016,-0.821334 0.896,-0.896 0.896,-2.090667 V 31.749783 q 0,-1.194668 -0.896,-2.016001 -0.82133,-0.821334 -2.016,-0.821334 h -35.84001 q -2.46401,0 -4.55467,-1.194667 -2.016,-1.269334 -3.21067,-3.285335 -1.19467,-2.016001 -1.19467,-4.480002 V 7.9311047 q 0,-2.4640012 1.19467,-4.4800021 1.19467,-2.0906677 3.21067,-3.28533493 2.09066,-1.19466727 4.55467,-1.19466727 h 35.84001 q 2.464,0 4.48001,1.19466727 2.09066,1.19466723 3.28533,3.28533493 1.19467,2.0160009 1.19467,4.4800021 V 10.021772 H 794.7193 V 7.9311047 q 0,-1.1946672 -0.896,-2.016001 -0.82133,-0.8960004 -2.016,-0.8960004 h -35.84001 q -1.19467,0 -2.09067,0.8960004 -0.82134,0.8213338 -0.82134,2.016001 V 19.952444 q 0,1.194667 0.82134,2.016001 0.896,0.821333 2.09067,0.821333 h 35.84001 q 2.464,0 4.48001,1.269334 2.09066,1.194668 3.28533,3.210669 1.19467,2.016001 1.19467,4.480002 v 12.021339 q 0,2.464001 -1.19467,4.554669 -1.19467,2.016001 -3.28533,3.210668 -2.01601,1.194667 -4.48001,1.194667 z"
         style="line-height:0.8"
         id="path360" />
    </g>
  </g>
</svg>
