<?xml version="1.0" encoding="UTF-8" standalone="no"?>
<svg
   width="1374"
   height="1374"
   xml:space="preserve"
   overflow="hidden"
   version="1.1"
   id="svg114"
   sodipodi:docname="new_logo_edited_108.svg"
   inkscape:version="1.2.2 (b0a8486541, 2022-12-01)"
   viewBox="0 0 1374 1374"
   xmlns:inkscape="http://www.inkscape.org/namespaces/inkscape"
   xmlns:sodipodi="http://sodipodi.sourceforge.net/DTD/sodipodi-0.dtd"
   xmlns="http://www.w3.org/2000/svg"
   xmlns:svg="http://www.w3.org/2000/svg"><sodipodi:namedview
     id="namedview116"
     pagecolor="#505050"
     bordercolor="#eeeeee"
     borderopacity="1"
     inkscape:showpageshadow="0"
     inkscape:pageopacity="0"
     inkscape:pagecheckerboard="0"
     inkscape:deskcolor="#505050"
     showgrid="true"
     inkscape:zoom="0.35703376"
     inkscape:cx="162.44962"
     inkscape:cy="847.25881"
     inkscape:window-width="1920"
     inkscape:window-height="983"
     inkscape:window-x="0"
     inkscape:window-y="0"
     inkscape:window-maximized="1"
     inkscape:current-layer="g112"><inkscape:grid
       type="xygrid"
       id="grid1092"
       originx="-176"
       originy="-46" /></sodipodi:namedview><defs
     id="defs86"><inkscape:perspective
       sodipodi:type="inkscape:persp3d"
       inkscape:vp_x="0 : 8740.1653 : 1"
       inkscape:vp_y="0 : 12722.225 : 0"
       inkscape:vp_z="17480.333 : 8740.1674 : 1"
       inkscape:persp3d-origin="8740.1674 : 5826.7784 : 1"
       id="perspective4268" /><clipPath
       id="clip0"><rect
         x="507"
         y="398"
         width="1726"
         height="1751"
         id="rect83" /></clipPath></defs><g
     clip-path="url(#clip0)"
     transform="translate(-683,-444)"
     id="g112"><path
       id="rect88"
       fill="#9e2528"
       d="m 684,1180 h 1375 v 614 q 0,24 -24,24 H 708 q -24,0 -24,-24 z" /><path
       id="path90"
       style="fill:#dbad5e;fill-opacity:1;fill-rule:nonzero;stroke:#6b191b;stroke-width:10.312;stroke-linejoin:miter;stroke-dasharray:none;stroke-opacity:1"
       d="M 1370,1265 970.74609,1818 H 1769.2539 Z" /><path
       id="path92"
       d="m 1370,1363 -328.4648,454.9512 h 656.9296 z"
       style="fill:#233350;fill-opacity:1;stroke:none;stroke-width:0;stroke-dasharray:none" /><path
       id="rect96"
       fill="#233350"
       d="M 684,1058 V 468 q 0,-24 24,-24 h 1327 q 24,0 24,24 v 590 z" /><rect
       x="683"
       y="1046"
       width="1374"
       height="134"
       fill="#091020"
       id="rect98" /><path
       d="m 1287.5,1047.33 c 0,-15.37 12.46,-27.83 27.83,-27.83 h 111.34 c 15.37,0 27.83,12.46 27.83,27.83 v 121.34 c 0,15.37 -12.46,27.83 -27.83,27.83 h -111.34 c -15.37,0 -27.83,-12.46 -27.83,-27.83 z"
       stroke="#aa7922"
       stroke-width="6.875"
       stroke-miterlimit="8"
       fill="#dbad5e"
       fill-rule="evenodd"
       id="path100" /><path
       d="m 1303.5,598.5 c 0,-37.003 30,-67 67,-67 37,0 67,29.997 67,67 0,37.003 -30,67 -67,67 -37,0 -67,-29.997 -67,-67 z"
       stroke="#aa7922"
       stroke-width="6.875"
       stroke-miterlimit="8"
       fill="#dbad5e"
       fill-rule="evenodd"
       id="path102" /><path
       d="m 1301.5,842.5 c 0,-37.003 29.77,-67 66.5,-67 36.73,0 66.5,29.997 66.5,67 0,37.003 -29.77,67 -66.5,67 -36.73,0 -66.5,-29.997 -66.5,-67 z"
       stroke="#aa7922"
       stroke-width="6.875"
       stroke-miterlimit="8"
       fill="#dbad5e"
       fill-rule="evenodd"
       id="path104" /></g></svg>
